<svg xmlns="http://www.w3.org/2000/svg" width="24.673" height="24.676" viewBox="0 0 24.673 24.676"><g transform="translate(-289.605 -317.508)"><path d="M313.908,332.831a12.333,12.333,0,1,1-8.984-14.953,12.334,12.334,0,0,1,8.984,14.953Z" fill="#f7931a"/><path d="M316.948,334.94c.246-1.642-1-2.524-2.714-3.113l.554-2.224-1.354-.337-.54,2.165c-.356-.089-.721-.172-1.085-.255l.544-2.18L311,328.659l-.555,2.223c-.295-.067-.584-.133-.864-.2l0-.007-1.867-.466-.36,1.446s1,.23.983.244a.72.72,0,0,1,.631.787l-.632,2.533a1.126,1.126,0,0,1,.141.045l-.143-.035-.885,3.549a.493.493,0,0,1-.62.322c.013.02-.984-.246-.984-.246l-.672,1.55,1.762.439c.328.082.649.168.965.249l-.56,2.249,1.352.337.555-2.225c.369.1.728.193,1.079.28l-.553,2.215,1.354.337.56-2.245c2.308.437,4.044.261,4.775-1.827a2.375,2.375,0,0,0-1.244-3.283,2.159,2.159,0,0,0,1.728-1.988Zm-3.093,4.337c-.418,1.681-3.249.772-4.166.544l.743-2.98C311.35,337.071,314.293,337.524,313.856,339.277Zm.419-4.361c-.382,1.529-2.737.752-3.5.562l.674-2.7C312.211,332.965,314.672,333.321,314.274,334.916Z" transform="translate(-9.568 -6.851)" fill="#fff"/></g></svg>