<svg xmlns="http://www.w3.org/2000/svg" width="56.511" height="39.795" viewBox="0 0 56.511 39.795"><g transform="translate(-332.282 -636.442)"><rect width="56.511" height="39.795" rx="7" transform="translate(332.282 636.442)" fill="#0066b2"/><g transform="translate(342.502 651.065)"><g transform="translate(0 0)"><path d="M781.327,732.362h-2.943l1.84-11.306h2.943Z" transform="translate(-765.69 -720.854)" fill="#fff"/><path d="M716.156,721.057l-2.806,7.776-.332-1.675h0l-.991-5.084a1.26,1.26,0,0,0-1.4-1.018h-4.639l-.054.191a10.991,10.991,0,0,1,3.079,1.293l2.557,9.821h3.067l4.683-11.305Z" transform="translate(-705.938 -720.855)" fill="#fff"/><path d="M859.813,732.362h2.7l-2.356-11.305h-2.367a1.353,1.353,0,0,0-1.359.842l-4.389,10.463h3.068l.614-1.679h3.742Zm-3.239-4,1.547-4.231.87,4.231Z" transform="translate(-826.443 -720.855)" fill="#fff"/><path d="M813.912,722.823l.42-2.428a8.5,8.5,0,0,0-2.647-.493c-1.461,0-4.929.639-4.929,3.743,0,2.921,4.071,2.957,4.071,4.491s-3.651,1.259-4.856.292l-.438,2.538a8.245,8.245,0,0,0,3.323.639c2.008,0,5.039-1.04,5.039-3.871,0-2.939-4.108-3.213-4.108-4.491S812.652,722.129,813.912,722.823Z" transform="translate(-788.081 -719.902)" fill="#fff"/></g><path d="M713.018,727.159l-.991-5.084a1.26,1.26,0,0,0-1.4-1.018h-4.639l-.054.191a11.408,11.408,0,0,1,4.369,2.193A8.816,8.816,0,0,1,713.018,727.159Z" transform="translate(-705.938 -720.855)" fill="#f9a533"/></g></g></svg>