<svg xmlns="http://www.w3.org/2000/svg" width="56.511" height="39.795" viewBox="0 0 56.511 39.795"><g transform="translate(-265.293 -636.442)"><rect width="56.511" height="39.795" rx="7" transform="translate(265.293 636.442)" fill="#253b80"/><g transform="translate(273.757 651.065)"><path d="M318.707,722.787c-.168,1.1-1.012,1.1-1.829,1.1h-.465l.326-2.063a.256.256,0,0,1,.253-.217h.213c.556,0,1.081,0,1.351.317A1.026,1.026,0,0,1,318.707,722.787Zm-.355-2.883h-3.079a.428.428,0,0,0-.423.361l-1.245,7.895a.256.256,0,0,0,.254.3h1.47a.428.428,0,0,0,.423-.361l.336-2.129a.427.427,0,0,1,.422-.362h.975a3.162,3.162,0,0,0,3.5-2.926,2.371,2.371,0,0,0-.393-1.987A2.856,2.856,0,0,0,318.352,719.9Z" transform="translate(-313.602 -719.904)" fill="#fff"/><path d="M358.354,738.374a1.643,1.643,0,0,1-1.664,1.408,1.142,1.142,0,0,1-1.221-1.433,1.65,1.65,0,0,1,1.652-1.419,1.244,1.244,0,0,1,.983.4A1.277,1.277,0,0,1,358.354,738.374Zm2.055-2.869h-1.474a.257.257,0,0,0-.254.217l-.065.412-.1-.149a2.1,2.1,0,0,0-1.741-.618,3.39,3.39,0,0,0-3.292,2.965,2.783,2.783,0,0,0,.549,2.265,2.307,2.307,0,0,0,1.857.75,2.821,2.821,0,0,0,2.041-.844l-.066.41a.257.257,0,0,0,.253.3h1.328a.428.428,0,0,0,.423-.362l.8-5.046A.256.256,0,0,0,360.408,735.5Z" transform="translate(-346.456 -732.656)" fill="#fff"/><path d="M405.71,736.157h-1.481a.429.429,0,0,0-.354.188l-2.043,3.01-.866-2.892a.429.429,0,0,0-.411-.305H399.1a.257.257,0,0,0-.244.339l1.632,4.789-1.534,2.166a.256.256,0,0,0,.209.405h1.48a.427.427,0,0,0,.352-.184l4.928-7.113A.256.256,0,0,0,405.71,736.157Z" transform="translate(-383.906 -733.309)" fill="#fff"/><path d="M444.035,722.787c-.168,1.1-1.012,1.1-1.829,1.1h-.464l.326-2.063a.256.256,0,0,1,.253-.217h.213c.555,0,1.08,0,1.351.317A1.026,1.026,0,0,1,444.035,722.787Zm-.355-2.883H440.6a.428.428,0,0,0-.422.361l-1.245,7.895a.256.256,0,0,0,.253.3h1.58a.3.3,0,0,0,.3-.253l.353-2.238a.427.427,0,0,1,.422-.362h.974a3.162,3.162,0,0,0,3.5-2.926,2.37,2.37,0,0,0-.393-1.987A2.854,2.854,0,0,0,443.68,719.9Z" transform="translate(-416.97 -719.904)" fill="#fff"/><path d="M483.688,738.374a1.643,1.643,0,0,1-1.664,1.408,1.142,1.142,0,0,1-1.221-1.433,1.651,1.651,0,0,1,1.652-1.419,1.244,1.244,0,0,1,.983.4A1.27,1.27,0,0,1,483.688,738.374Zm2.055-2.869h-1.473a.255.255,0,0,0-.253.217l-.065.412-.1-.149a2.1,2.1,0,0,0-1.741-.618,3.39,3.39,0,0,0-3.291,2.965,2.785,2.785,0,0,0,.549,2.265,2.308,2.308,0,0,0,1.857.75,2.821,2.821,0,0,0,2.041-.844l-.066.41a.257.257,0,0,0,.254.3h1.328a.428.428,0,0,0,.422-.362l.8-5.046A.257.257,0,0,0,485.743,735.5Z" transform="translate(-449.831 -732.656)" fill="#fff"/><path d="M522.514,720.119l-1.264,8.039a.256.256,0,0,0,.253.3h1.27a.427.427,0,0,0,.423-.362l1.246-7.894a.257.257,0,0,0-.253-.3h-1.423A.257.257,0,0,0,522.514,720.119Z" transform="translate(-484.864 -719.902)" fill="#fff"/></g></g></svg>