<svg xmlns="http://www.w3.org/2000/svg" width="56.511" height="39.795" viewBox="0 0 56.511 39.795"><g transform="translate(-399.272 -636.442)"><rect width="56.511" height="39.795" rx="7" transform="translate(399.272 636.442)" fill="#36495d"/><g transform="translate(409.972 645.489)"><rect width="9.494" height="17.061" transform="translate(12.808 2.32)" fill="#f16522"/><path d="M1104.413,698.925a10.831,10.831,0,0,1,4.144-8.53,10.85,10.85,0,1,0,0,17.061,10.831,10.831,0,0,1-4.144-8.53" transform="translate(-1091.002 -688.075)" fill="#e41b24"/><path d="M1208.752,698.925a10.849,10.849,0,0,1-17.555,8.53,10.853,10.853,0,0,0,0-17.061,10.85,10.85,0,0,1,17.555,8.53m-1.035,6.724V705.3h.141v-.071h-.359v.071h.141v.349Zm.7,0v-.421h-.11l-.126.29-.126-.29h-.11v.421h.077v-.318l.118.274h.081l.118-.275v.319Z" transform="translate(-1173.641 -688.075)" fill="#f89e1c"/></g></g></svg>