<svg xmlns="http://www.w3.org/2000/svg" width="28.284" height="31.093" viewBox="0 0 28.284 31.093"><g transform="translate(-3 -1.5)"><path d="M30.928,7.214A4.214,4.214,0,1,1,26.714,3,4.214,4.214,0,0,1,30.928,7.214Z" transform="translate(-1.144 0)" fill="none" stroke="#fff" stroke-linecap="round" stroke-linejoin="round" stroke-width="3"/><path d="M12.928,17.714A4.214,4.214,0,1,1,8.714,13.5,4.214,4.214,0,0,1,12.928,17.714Z" transform="translate(0 -0.667)" fill="none" stroke="#fff" stroke-linecap="round" stroke-linejoin="round" stroke-width="3"/><path d="M30.928,28.214A4.214,4.214,0,1,1,26.714,24,4.214,4.214,0,0,1,30.928,28.214Z" transform="translate(-1.144 -1.335)" fill="none" stroke="#fff" stroke-linecap="round" stroke-linejoin="round" stroke-width="3"/><path d="M12.885,20.265l9.594,5.591" transform="translate(-0.533 -1.097)" fill="none" stroke="#fff" stroke-linecap="round" stroke-linejoin="round" stroke-width="3"/><path d="M22.465,9.765l-9.58,5.591" transform="translate(-0.533 -0.43)" fill="none" stroke="#fff" stroke-linecap="round" stroke-linejoin="round" stroke-width="3"/></g></svg>