<svg xmlns="http://www.w3.org/2000/svg" width="27" height="20.25" viewBox="0 0 27 20.25"><path d="M0,23.625V3.375H.949v20.25Zm1.416-.014V3.375H1.9V23.611H1.416Zm1.431,0V3.375h.467V23.611Zm2.366,0V3.375H5.68V23.611Zm1.9,0V3.375h.934V23.611H7.112Zm2.366,0V3.375h.467V23.611Zm.949,0V3.375h.467V23.611Zm.949,0V3.375h.467V23.611Zm1.883,0V3.375h.949V23.611Zm2.366,0V3.375h.949V23.611Zm1.9,0V3.375h.949V23.611Zm1.9,0V3.375h.949V23.611Zm1.416,0V3.375h.949V23.611Zm2.381,0V3.375h1.416V23.611Zm1.883,0V3.375h.482V23.611H25.1Zm.949.014V3.375H27v20.25Z" transform="translate(0 -3.375)" fill="#aaa"/></svg>