<svg xmlns="http://www.w3.org/2000/svg" width="145.612" height="120.41" viewBox="0 0 145.612 120.41"><g transform="translate(-17264.678 -1838.795)"><g transform="translate(17266.678 1837.795)"><path d="M102.309,60.3V47.7a25.2,25.2,0,0,0-25.2-25.2H26.7A25.2,25.2,0,0,0,1.5,47.7V60.3" transform="translate(0 57.606)" fill="none" stroke="#55a630" stroke-linecap="round" stroke-linejoin="round" stroke-width="7"/><path d="M57.9,29.7A25.2,25.2,0,1,1,32.7,4.5,25.2,25.2,0,0,1,57.9,29.7Z" transform="translate(19.202)" fill="none" stroke="#55a630" stroke-linecap="round" stroke-linejoin="round" stroke-width="7"/><path d="M48.9,59.679v-12.6A25.2,25.2,0,0,0,30,22.695" transform="translate(91.21 58.231)" fill="none" stroke="#e6e9ee" stroke-linecap="round" stroke-linejoin="round" stroke-width="7"/><path d="M24,4.695a25.2,25.2,0,0,1,0,48.829" transform="translate(72.008 0.624)" fill="none" stroke="#e6e9ee" stroke-linecap="round" stroke-linejoin="round" stroke-width="7"/></g></g></svg>