<svg xmlns="http://www.w3.org/2000/svg" width="154.88" height="152.88" viewBox="0 0 154.88 152.88"><g transform="translate(-318.06 -1049.06)"><path d="M138.38,67.721a62.329,62.329,0,0,1-6.694,28.264,63.221,63.221,0,0,1-56.527,34.958A62.329,62.329,0,0,1,46.9,124.249L4.5,138.38l14.132-42.4a62.329,62.329,0,0,1-6.694-28.264A63.221,63.221,0,0,1,46.9,11.194,62.329,62.329,0,0,1,75.159,4.5h3.719A63.072,63.072,0,0,1,138.38,64Z" transform="translate(331.06 1060.06)" fill="none" stroke="#d9e0ea" stroke-linecap="round" stroke-linejoin="round" stroke-width="7"/><path d="M138.38,67.721a62.329,62.329,0,0,1-6.694,28.264,63.221,63.221,0,0,1-56.527,34.958A62.329,62.329,0,0,1,46.9,124.249L4.5,138.38l14.132-42.4a62.329,62.329,0,0,1-6.694-28.264A63.221,63.221,0,0,1,46.9,11.194,62.329,62.329,0,0,1,75.159,4.5h3.719A63.072,63.072,0,0,1,138.38,64Z" transform="translate(317.06 1048.06)" fill="none" stroke="#55a630" stroke-linecap="round" stroke-linejoin="round" stroke-width="7"/></g></svg>