<svg xmlns="http://www.w3.org/2000/svg" width="136.614" height="152.017" viewBox="0 0 136.614 152.017"><g transform="translate(-336.693 -1054.991)"><g transform="translate(355.193 1064.491)"><path d="M74.509,3H19.7A13.7,13.7,0,0,0,6,16.7V126.315a13.7,13.7,0,0,0,13.7,13.7h82.21a13.7,13.7,0,0,0,13.7-13.7V44.105Z" fill="none" stroke="#201f24" stroke-linecap="round" stroke-linejoin="round" stroke-width="5"/><path d="M21,3V44.105H62.105" transform="translate(53.509)" fill="none" stroke="#201f24" stroke-linecap="round" stroke-linejoin="round" stroke-width="5"/><path d="M66.807,19.5H12" transform="translate(21.403 58.859)" fill="none" stroke="#201f24" stroke-linecap="round" stroke-linejoin="round" stroke-width="5"/><path d="M66.807,25.5H12" transform="translate(21.403 80.263)" fill="none" stroke="#201f24" stroke-linecap="round" stroke-linejoin="round" stroke-width="5"/><path d="M25.7,13.5H12" transform="translate(21.403 37.456)" fill="none" stroke="#201f24" stroke-linecap="round" stroke-linejoin="round" stroke-width="5"/></g><g transform="translate(334.193 1055.491)"><path d="M74.509,3H19.7A13.7,13.7,0,0,0,6,16.7V126.315a13.7,13.7,0,0,0,13.7,13.7h82.21a13.7,13.7,0,0,0,13.7-13.7V44.105Z" fill="none" stroke="#55a630" stroke-linecap="round" stroke-linejoin="round" stroke-width="7"/><path d="M21,3V44.105H62.105" transform="translate(53.509)" fill="none" stroke="#55a630" stroke-linecap="round" stroke-linejoin="round" stroke-width="7"/><path d="M66.807,19.5H12" transform="translate(21.403 58.859)" fill="none" stroke="#55a630" stroke-linecap="round" stroke-linejoin="round" stroke-width="7"/><path d="M66.807,25.5H12" transform="translate(21.403 80.263)" fill="none" stroke="#55a630" stroke-linecap="round" stroke-linejoin="round" stroke-width="7"/><path d="M25.7,13.5H12" transform="translate(21.403 37.456)" fill="none" stroke="#55a630" stroke-linecap="round" stroke-linejoin="round" stroke-width="7"/></g></g></svg>