<svg xmlns="http://www.w3.org/2000/svg" width="142.273" height="139.273" viewBox="0 0 142.273 139.273"><g transform="translate(-307.06 -1043.421)"><g transform="translate(320.06 1053.421)"><path d="M17.814,4.5h93.2a13.314,13.314,0,0,1,13.314,13.314v93.2a13.314,13.314,0,0,1-13.314,13.314h-93.2A13.314,13.314,0,0,1,4.5,111.01v-93.2A13.314,13.314,0,0,1,17.814,4.5Z" transform="translate(0 0)" fill="none" stroke="#e6e9ee" stroke-linecap="round" stroke-linejoin="round" stroke-width="7"/><path d="M30.471,20.485A9.985,9.985,0,1,1,20.485,10.5,9.985,9.985,0,0,1,30.471,20.485Z" transform="translate(20.627 20.627)" fill="none" stroke="#e6e9ee" stroke-linecap="round" stroke-linejoin="round" stroke-width="7"/><path d="M114.01,48.284,80.725,15,7.5,88.225" transform="translate(10.314 36.098)" fill="none" stroke="#e6e9ee" stroke-linecap="round" stroke-linejoin="round" stroke-width="7"/></g><g transform="translate(306.06 1042.421)"><path d="M17.814,4.5h93.2a13.314,13.314,0,0,1,13.314,13.314v93.2a13.314,13.314,0,0,1-13.314,13.314h-93.2A13.314,13.314,0,0,1,4.5,111.01v-93.2A13.314,13.314,0,0,1,17.814,4.5Z" transform="translate(0 0)" fill="none" stroke="#55a630" stroke-linecap="round" stroke-linejoin="round" stroke-width="7"/><path d="M30.471,20.485A9.985,9.985,0,1,1,20.485,10.5,9.985,9.985,0,0,1,30.471,20.485Z" transform="translate(20.627 20.627)" fill="none" stroke="#55a630" stroke-linecap="round" stroke-linejoin="round" stroke-width="7"/><path d="M114.01,48.284,80.725,15,7.5,88.225" transform="translate(10.314 36.098)" fill="none" stroke="#55a630" stroke-linecap="round" stroke-linejoin="round" stroke-width="7"/></g></g></svg>