<svg xmlns="http://www.w3.org/2000/svg" width="24.416" height="26.907" viewBox="0 0 24.416 26.907"><g transform="translate(-3.5 -2)"><path d="M29.972,6.736A3.736,3.736,0,1,1,26.236,3,3.736,3.736,0,0,1,29.972,6.736Z" transform="translate(-3.056)" fill="none" stroke="#262d33" stroke-linecap="round" stroke-linejoin="round" stroke-width="2"/><path d="M11.972,17.236A3.736,3.736,0,1,1,8.236,13.5,3.736,3.736,0,0,1,11.972,17.236Z" transform="translate(0 -1.783)" fill="none" stroke="#262d33" stroke-linecap="round" stroke-linejoin="round" stroke-width="2"/><path d="M29.972,27.736A3.736,3.736,0,1,1,26.236,24,3.736,3.736,0,0,1,29.972,27.736Z" transform="translate(-3.056 -3.565)" fill="none" stroke="#262d33" stroke-linecap="round" stroke-linejoin="round" stroke-width="2"/><path d="M12.885,20.265l8.506,4.956" transform="translate(-1.424 -2.931)" fill="none" stroke="#262d33" stroke-linecap="round" stroke-linejoin="round" stroke-width="2"/><path d="M21.378,9.765l-8.493,4.956" transform="translate(-1.424 -1.149)" fill="none" stroke="#262d33" stroke-linecap="round" stroke-linejoin="round" stroke-width="2"/></g></svg>