<svg xmlns="http://www.w3.org/2000/svg" width="99.369" height="99.369" viewBox="0 0 99.369 99.369"><g transform="translate(2 2)"><path d="M15,4.5H88.536A10.5,10.5,0,0,1,99.041,15V88.536a10.5,10.5,0,0,1-10.5,10.5H15a10.5,10.5,0,0,1-10.5-10.5V15A10.5,10.5,0,0,1,15,4.5Z" transform="translate(-4.5 -4.5)" fill="none" stroke="#000" stroke-linecap="round" stroke-linejoin="round" stroke-width="4"/><path d="M26.257,18.378A7.878,7.878,0,1,1,18.378,10.5,7.878,7.878,0,0,1,26.257,18.378Z" transform="translate(10.509 10.509)" fill="none" stroke="#000" stroke-linecap="round" stroke-linejoin="round" stroke-width="4"/><path d="M91.536,41.261,65.275,15,7.5,72.775" transform="translate(3.005 21.766)" fill="none" stroke="#000" stroke-linecap="round" stroke-linejoin="round" stroke-width="4"/></g></svg>