<svg xmlns="http://www.w3.org/2000/svg" width="29.175" height="29.175" viewBox="0 0 29.175 29.175"><g transform="translate(1.5 1.5)"><path d="M16.118,13.5H27.9a2.618,2.618,0,0,1,2.618,2.618V27.9A2.618,2.618,0,0,1,27.9,30.514H16.118A2.618,2.618,0,0,1,13.5,27.9V16.118A2.618,2.618,0,0,1,16.118,13.5Z" transform="translate(-4.339 -4.339)" fill="none" stroke="#262d33" stroke-linecap="round" stroke-linejoin="round" stroke-width="3"/><path d="M6.926,20.014H5.618A2.618,2.618,0,0,1,3,17.4V5.618A2.618,2.618,0,0,1,5.618,3H17.4a2.618,2.618,0,0,1,2.618,2.618V6.926" transform="translate(-3 -3)" fill="none" stroke="#262d33" stroke-linecap="round" stroke-linejoin="round" stroke-width="3"/></g></svg>