<svg xmlns="http://www.w3.org/2000/svg" width="57.911" height="58.773" viewBox="0 0 57.911 58.773"><path d="M168.089,773.654a6.22,6.22,0,0,0,12.428-.381c0-.129,0-.256-.014-.384a6.211,6.211,0,0,0-10.507-4.1h0l-1.32-.762-2.8-1.616a7.93,7.93,0,0,1-1.737,3l2.794,1.616,1.323.765.006,0a6.2,6.2,0,0,0-.186,1.482Q168.075,773.464,168.089,773.654Z" transform="translate(-140.997 -734.184)" fill="#55a630"/><path d="M38.6,626.714c.145,0,.286,0,.428-.006l.068,0c.387,0,.762-.021,1.146-.044a25.042,25.042,0,0,0,3.84-.541l.768-.171v-8.173a8.3,8.3,0,0,1,0-15.642V589.387a1.6,1.6,0,0,1,1.424-1.586,1.567,1.567,0,0,1,.972.2l.189.109.629.363a28.5,28.5,0,0,1,1.651-4.1q.3-.594.62-1.181c.089-.16.177-.316.269-.476q.572-.992,1.208-1.917c.154-.227.313-.452.476-.673-.372.094-.744.195-1.11.3a28.95,28.95,0,0,0-14.171,46.223C37.526,626.7,38.063,626.714,38.6,626.714Z" transform="translate(-30.372 -580.133)" fill="#55a630"/><path d="M193.123,663.008a6.231,6.231,0,0,0-6.206,5.841q-.014.191-.014.381a6.22,6.22,0,0,0,12.428.384c.009-.127.014-.254.014-.384A6.229,6.229,0,0,0,193.123,663.008Z" transform="translate(-159.824 -648.671)" fill="#55a630"/><path d="M184.024,609.718a28.95,28.95,0,0,0-29.887-14.074c-.289.431-.567.883-.833,1.344-.08.142-.163.284-.245.431-.189.349-.372.7-.546,1.043a24.835,24.835,0,0,0-1.438,3.574l-.236.753,7.074,4.088A8.3,8.3,0,0,1,171.46,614.7l11.037,6.374a1.582,1.582,0,0,1,.8,1.382,1.606,1.606,0,0,1-.133.641,1.564,1.564,0,0,1-.664.738l-.192.112-.626.363a28.8,28.8,0,0,1,2.72,3.482c.245.366.484.738.712,1.117.1.156.192.316.284.475.381.659.73,1.329,1.055,2.006.118.248.23.5.343.747.1-.357.2-.715.284-1.075A28.827,28.827,0,0,0,184.024,609.718Z" transform="translate(-129.998 -592.629)" fill="#55a630"/><path d="M106.248,714.317l-.263.151-.281.162-1.043.6h0a6.2,6.2,0,1,0,1.737,3h0l1.037-.6.281-.162.266-.154,2.534-1.465a7.885,7.885,0,0,1-1.734-3Z" transform="translate(-83.104 -689.892)" fill="#55a630"/><path d="M107.075,778.4l-.03-.047c-.183-.3-.384-.62-.62-.972a25.172,25.172,0,0,0-2.4-3.066l-.526-.576-7.074,4.085a8.224,8.224,0,0,1,.139,1.509,8.3,8.3,0,0,1-13.687,6.312l-11.04,6.374a1.589,1.589,0,0,1-2.085-.44,1.571,1.571,0,0,1-.307-.942v-.945a28.446,28.446,0,0,1-4.374.617c-.443.03-.886.047-1.335.053-.18.006-.36.009-.544.009q-1.143,0-2.262-.091c-.275-.018-.549-.044-.821-.074.263.272.529.538.8.8a28.95,28.95,0,0,0,47.127-10.831c-.245-.493-.49-.957-.747-1.4C107.219,778.643,107.148,778.519,107.075,778.4Z" transform="translate(-54.968 -740.247)" fill="#55a630"/></svg>