<svg xmlns="http://www.w3.org/2000/svg" width="248.987" height="58.773" viewBox="0 0 248.987 58.773"><g transform="translate(-30.372 -580.133)"><g transform="translate(30.372 580.133)"><path d="M168.089,773.654a6.22,6.22,0,0,0,12.428-.381c0-.129,0-.256-.014-.384a6.211,6.211,0,0,0-10.507-4.1h0l-1.32-.762-2.8-1.616a7.93,7.93,0,0,1-1.737,3l2.794,1.616,1.323.765.006,0a6.2,6.2,0,0,0-.186,1.482Q168.075,773.464,168.089,773.654Z" transform="translate(-140.997 -734.184)" fill="#55a630"/><path d="M38.6,626.714c.145,0,.286,0,.428-.006l.068,0c.387,0,.762-.021,1.146-.044a25.042,25.042,0,0,0,3.84-.541l.768-.171v-8.173a8.3,8.3,0,0,1,0-15.642V589.387a1.6,1.6,0,0,1,1.424-1.586,1.567,1.567,0,0,1,.972.2l.189.109.629.363a28.5,28.5,0,0,1,1.651-4.1q.3-.594.62-1.181c.089-.16.177-.316.269-.476q.572-.992,1.208-1.917c.154-.227.313-.452.476-.673-.372.094-.744.195-1.11.3a28.95,28.95,0,0,0-14.171,46.223C37.526,626.7,38.063,626.714,38.6,626.714Z" transform="translate(-30.372 -580.133)" fill="#55a630"/><path d="M193.123,663.008a6.231,6.231,0,0,0-6.206,5.841q-.014.191-.014.381a6.22,6.22,0,0,0,12.428.384c.009-.127.014-.254.014-.384A6.229,6.229,0,0,0,193.123,663.008Z" transform="translate(-159.824 -648.671)" fill="#55a630"/><path d="M184.024,609.718a28.95,28.95,0,0,0-29.887-14.074c-.289.431-.567.883-.833,1.344-.08.142-.163.284-.245.431-.189.349-.372.7-.546,1.043a24.835,24.835,0,0,0-1.438,3.574l-.236.753,7.074,4.088A8.3,8.3,0,0,1,171.46,614.7l11.037,6.374a1.582,1.582,0,0,1,.8,1.382,1.606,1.606,0,0,1-.133.641,1.564,1.564,0,0,1-.664.738l-.192.112-.626.363a28.8,28.8,0,0,1,2.72,3.482c.245.366.484.738.712,1.117.1.156.192.316.284.475.381.659.73,1.329,1.055,2.006.118.248.23.5.343.747.1-.357.2-.715.284-1.075A28.827,28.827,0,0,0,184.024,609.718Z" transform="translate(-129.998 -592.629)" fill="#55a630"/><path d="M106.248,714.317l-.263.151-.281.162-1.043.6h0a6.2,6.2,0,1,0,1.737,3h0l1.037-.6.281-.162.266-.154,2.534-1.465a7.885,7.885,0,0,1-1.734-3Z" transform="translate(-83.104 -689.892)" fill="#55a630"/><path d="M107.075,778.4l-.03-.047c-.183-.3-.384-.62-.62-.972a25.172,25.172,0,0,0-2.4-3.066l-.526-.576-7.074,4.085a8.224,8.224,0,0,1,.139,1.509,8.3,8.3,0,0,1-13.687,6.312l-11.04,6.374a1.589,1.589,0,0,1-2.085-.44,1.571,1.571,0,0,1-.307-.942v-.945a28.446,28.446,0,0,1-4.374.617c-.443.03-.886.047-1.335.053-.18.006-.36.009-.544.009q-1.143,0-2.262-.091c-.275-.018-.549-.044-.821-.074.263.272.529.538.8.8a28.95,28.95,0,0,0,47.127-10.831c-.245-.493-.49-.957-.747-1.4C107.219,778.643,107.148,778.519,107.075,778.4Z" transform="translate(-54.968 -740.247)" fill="#55a630"/></g><path d="M950.107,778.794a2.78,2.78,0,1,1,0-5.559,2.78,2.78,0,1,1,0,5.559Z" transform="translate(-758.324 -159.696)" fill="#55a630"/><path d="M438.929,666.322c-2.893-.6-4.32-1.014-4.32-2.179,0-1.2,1.39-2.141,3.306-2.141,1.878,0,3.381.714,3.907,2.817l3.606-.714c-.676-3.381-3.08-5.485-7.288-5.485-4.094,0-7.175,2.517-7.175,5.71,0,2.517,1.352,4.357,6.311,5.372,3.118.6,4.621,1.165,4.621,2.555,0,1.54-1.578,2.592-3.757,2.592-2.291,0-4.132-.9-4.245-3.493l-3.644.789c.3,3.719,3.155,6.086,7.588,6.086,4.47,0,7.663-2.517,7.663-5.973C445.5,669.364,444.076,667.411,438.929,666.322Zm18.7-7.7a6.671,6.671,0,0,0-5.034,2.179v-9.166h-3.606v26.3h3.606V667.186c0-3.268,2.066-5.184,4.733-5.184,2.63,0,4.621,1.953,4.621,5.184V677.93h3.606V667.073C465.551,661.664,461.982,658.621,457.624,658.621Zm26.621,6.612c0-5.372-4.095-6.612-7.325-6.612a11.7,11.7,0,0,0-7.738,2.893l2.1,2.517A8.288,8.288,0,0,1,476.62,662c2.329,0,3.832,1.127,3.944,2.967-10.255,1.615-12.246,4.846-12.246,8,0,3.231,2.554,5.259,6.273,5.259a8.93,8.93,0,0,0,6.348-2.855,6.374,6.374,0,0,0,.714,2.555h3.681a9.753,9.753,0,0,1-1.089-4.621ZM480.6,669.4a5.609,5.609,0,0,1-5.447,5.748c-1.653,0-3.231-.752-3.231-2.179,0-1.991,1.69-3.831,8.678-4.921Zm11.607-7.739v-2.742H488.6V677.93h3.606v-8.9c0-3.156,1.578-6.386,6.2-6.987v-3.456A8.062,8.062,0,0,0,492.209,661.664Zm16.231-3.043a9.8,9.8,0,0,0,.038,19.609,10.429,10.429,0,0,0,7.926-3.606l-2.517-2.291a7.423,7.423,0,0,1-5.409,2.517,6.09,6.09,0,0,1-5.973-5h15.289s.075-.864.075-1.54A9.377,9.377,0,0,0,508.44,658.621Zm-5.9,8.039a6.048,6.048,0,0,1,5.9-4.658A5.532,5.532,0,0,1,514,666.66Zm36.279-7.889a7.853,7.853,0,0,0-6.611,3.381v-3.08H529.2v26.3h3.005V674.849a7.853,7.853,0,0,0,6.611,3.381,9.733,9.733,0,0,0,0-19.459Zm-.075,16.6a6.883,6.883,0,1,1,6.536-6.874A6.621,6.621,0,0,1,538.746,675.375Zm26.821-10.142c0-5.259-4.02-6.461-7.175-6.461a11.556,11.556,0,0,0-7.475,2.667l1.8,2.141a8.45,8.45,0,0,1,5.447-1.953c2.78,0,4.4,1.428,4.4,3.569-10.556,1.69-12.66,4.808-12.66,7.964,0,3.118,2.517,5.071,6.086,5.071a9.072,9.072,0,0,0,6.837-3.381,6.778,6.778,0,0,0,.639,3.08h3.005a10.139,10.139,0,0,1-.9-4.4Zm-3.005,4.17a6.143,6.143,0,0,1-5.973,6.274c-1.765,0-3.681-.751-3.681-2.517,0-2.179,1.991-4.094,9.654-5.409Zm22.166-7.25a7.853,7.853,0,0,0-6.611-3.381,9.733,9.733,0,0,0,0,19.459,7.853,7.853,0,0,0,6.611-3.381v.488c0,4.658-3.08,7.475-6.762,7.475a6.485,6.485,0,0,1-5.372-2.63l-2.291,1.8a9.418,9.418,0,0,0,7.663,3.682,9.634,9.634,0,0,0,9.767-9.88V659.072h-3.005Zm-6.536,13.223a6.883,6.883,0,1,1,6.536-6.874A6.621,6.621,0,0,1,578.191,675.375Zm31.87-6.987a9.3,9.3,0,0,0-9.354-9.617,9.729,9.729,0,0,0,.038,19.459,10.053,10.053,0,0,0,7.626-3.343l-2.141-1.953a7.629,7.629,0,0,1-5.484,2.442,6.739,6.739,0,0,1-6.611-5.672h15.852A12.742,12.742,0,0,0,610.061,668.388Zm-15.89-1.352a6.618,6.618,0,0,1,6.536-5.409c3.268,0,5.522,2.029,6.2,5.409Z" transform="translate(-330.702 -59.132)" fill="gray"/></g></svg>