<svg xmlns="http://www.w3.org/2000/svg" width="61.467" height="50.63" viewBox="0 0 61.467 50.63"><g transform="translate(0 0)"><g transform="translate(0 0)"><path d="M122.307,223.207a25.217,25.217,0,0,1-6.208,1.774c1-.168,2.475-1.979,3.065-2.711a11.443,11.443,0,0,0,2.068-3.764c.054-.108.095-.243-.014-.325a.349.349,0,0,0-.328.027,31.71,31.71,0,0,1-7.375,2.823.491.491,0,0,1-.508-.135,5.967,5.967,0,0,0-.645-.659,13.053,13.053,0,0,0-3.573-2.189,12.44,12.44,0,0,0-5.48-.883,13.1,13.1,0,0,0-5.2,1.469,13.422,13.422,0,0,0-4.195,3.426,12.917,12.917,0,0,0-2.5,5.016,13.614,13.614,0,0,0-.133,5.3c.041.3.015.336-.253.3-10.131-1.507-18.526-5.132-25.343-12.9-.3-.336-.456-.336-.7.027-2.983,4.471-1.534,11.653,2.191,15.184.5.47,1.007.941,1.557,1.37a12.873,12.873,0,0,1-4.891-1.37c-.3-.187-.444-.079-.47.255a7.659,7.659,0,0,0,.079,1.453,13,13,0,0,0,8.009,10.359,7.527,7.527,0,0,0,1.625.5,14.475,14.475,0,0,1-4.8.149c-.35-.068-.483.108-.35.444,2.11,5.752,6.666,7.462,10.077,8.438.458.079.914.079,1.372.187-.027.041-.054.041-.081.081-1.13,1.725-5.055,3.009-6.881,3.648a24.658,24.658,0,0,1-10.454,1.337c-.562-.083-.68-.077-.833,0-.155.095-.019.23.162.375.711.471,1.438.889,2.176,1.291a34.532,34.532,0,0,0,6.987,2.8c12.558,3.466,26.7.92,36.129-8.448,7.4-7.358,10-17.5,10-27.658,0-.4.47-.618.75-.827a24.344,24.344,0,0,0,4.894-5.115,1.484,1.484,0,0,0,.3-.98v-.054C122.537,223.044,122.558,223.095,122.307,223.207Z" transform="translate(-61.07 -217.139)" fill="#fff"/></g><g transform="translate(18.255 50.411)"><path d="M70.518,243.228Z" transform="translate(-70.518 -243.228)" fill="#fff" fill-rule="evenodd"/></g><g transform="translate(17.786 50.411)"><path d="M70.744,243.228c-.081.008-1.014,0,0,0Z" transform="translate(-70.275 -243.228)" fill="#fff" fill-rule="evenodd"/></g><g transform="translate(20.325 50.42)"><path d="M71.589,243.278c0-.1,1.088,0,0,0C71.589,243.224,71.722,243.278,71.589,243.278Z" transform="translate(-71.589 -243.232)" fill="#fff" fill-rule="evenodd"/></g><g transform="translate(41.812 0.074)"><path d="M82.962,217.177a.217.217,0,0,1-.253,0Z" transform="translate(-82.709 -217.177)" fill="#fff" fill-rule="evenodd"/></g></g></svg>