<svg xmlns="http://www.w3.org/2000/svg" width="50.829" height="48.547" viewBox="0 0 50.829 48.547"><g transform="translate(-135.211 -276.026)"><g transform="translate(-10.024 -4.529)"><g transform="translate(145.946 295.6)"><path d="M195.756,303.8v17.966a.8.8,0,0,1-.8.8h-9.276a.8.8,0,0,1-.8-.8V305.063c0-4.4-1.57-7.4-5.512-7.4a5.952,5.952,0,0,0-5.581,3.979,7.416,7.416,0,0,0-.36,2.653v17.477a.8.8,0,0,1-.805.8h-9.272a.8.8,0,0,1-.8-.8c.021-4.451.115-26.041.019-31.115a.8.8,0,0,1,.8-.814h9.254a.8.8,0,0,1,.8.805v3.834c-.023.037-.053.072-.072.108h.072v-.108a10.806,10.806,0,0,1,9.809-5.408c7.16,0,12.527,4.678,12.527,14.731Zm-49.315,18.77h9.274a.8.8,0,0,0,.8-.8V290.648a.8.8,0,0,0-.8-.805h-9.274a.8.8,0,0,0-.8.805v31.124A.8.8,0,0,0,146.442,322.575Z" transform="translate(-145.638 -289.074)" fill="#fff"/></g><g transform="translate(145.236 280.555)"><circle cx="5.825" cy="5.825" r="5.825" fill="#fff"/></g></g></g></svg>