<svg xmlns="http://www.w3.org/2000/svg" width="41.185" height="53.531" viewBox="0 0 41.185 53.531"><path d="M21.879.457C10.875.457,0,7.793,0,19.666c0,7.551,4.247,11.841,6.821,11.841,1.062,0,1.673-2.96,1.673-3.8,0-1-2.542-3.121-2.542-7.272C5.953,11.815,12.516,5.7,21.011,5.7c7.3,0,12.709,4.151,12.709,11.776,0,5.7-2.284,16.377-9.685,16.377a4.762,4.762,0,0,1-4.955-4.7c0-4.054,2.831-7.98,2.831-12.162,0-7.1-10.071-5.813-10.071,2.767A12.6,12.6,0,0,0,12.87,25.2c-1.48,6.371-4.5,15.863-4.5,22.426,0,2.027.29,4.022.483,6.049.365.408.182.365.74.161,5.406-7.4,5.212-8.848,7.658-18.533,1.319,2.51,4.73,3.861,7.433,3.861,11.39,0,16.506-11.1,16.506-21.107C41.185,7.407,31.983.457,21.879.457Z" transform="translate(0 -0.457)" fill="#fff"/></svg>