<svg xmlns="http://www.w3.org/2000/svg" width="50.997" height="50.997" viewBox="0 0 50.997 50.997"><g transform="translate(-143.423 -147.955)"><g transform="translate(143.423 147.955)"><path d="M168.922,147.955A25.5,25.5,0,0,0,147.5,187.274l-3.873,8.531a2.226,2.226,0,0,0,2.027,3.147,2.262,2.262,0,0,0,.59-.079l10.671-2.928a25.5,25.5,0,1,0,12.011-47.991Zm0,46.544a21.027,21.027,0,0,1-10.6-2.864,2.229,2.229,0,0,0-1.713-.226l-6.971,1.914,2.428-5.351a2.225,2.225,0,0,0-.221-2.222,21.042,21.042,0,1,1,17.074,8.749Z" transform="translate(-143.423 -147.955)" fill="#fff" fill-rule="evenodd"/></g><g transform="translate(156.529 161.81)"><path d="M174.088,172.371c-1.068-.639-2.457-1.352-3.715-.837-.966.395-1.581,1.9-2.207,2.677a.923.923,0,0,1-1.2.258,16.815,16.815,0,0,1-8.4-7.193,1.03,1.03,0,0,1,.13-1.407,5.7,5.7,0,0,0,1.526-2.477,5.43,5.43,0,0,0-.682-2.932c-.506-1.089-1.072-2.645-2.165-3.262a2.966,2.966,0,0,0-3.22.48,6.538,6.538,0,0,0-2.267,5.179,7.317,7.317,0,0,0,.2,1.643,13.586,13.586,0,0,0,1.577,3.635,28.483,28.483,0,0,0,1.646,2.5,25.406,25.406,0,0,0,7.14,6.629,21.583,21.583,0,0,0,4.452,2.117c1.746.577,3.3,1.176,5.184.819a6.277,6.277,0,0,0,4.7-3.5,3.046,3.046,0,0,0,.218-1.784C176.745,173.7,175.081,172.965,174.088,172.371Z" transform="translate(-151.893 -156.908)" fill="#fff" fill-rule="evenodd"/></g></g></svg>