<svg xmlns="http://www.w3.org/2000/svg" width="54.341" height="57.307" viewBox="0 0 54.341 57.307"><path d="M49.141,5.583C47.719,4.274,41.967.1,29.142.043c0,0-15.119-.906-22.483,5.853-4.1,4.1-5.54,10.106-5.7,17.548S.615,44.831,14.056,48.613h.011l-.011,5.775s-.09,2.339,1.455,2.809c1.858.582,2.954-1.2,4.734-3.111.974-1.052,2.317-2.6,3.335-3.771a52,52,0,0,0,17.067-1.253c1.858-.6,12.366-1.947,14.067-15.892,1.768-14.392-.851-23.479-5.573-27.587ZM50.7,32.117C49.253,43.756,40.736,44.495,39.169,45a48.114,48.114,0,0,1-14.683,1.253s-5.819,7.017-7.632,8.841c-.593.593-1.242.537-1.231-.638,0-.772.045-9.591.045-9.591h0C4.275,41.708,4.946,29.834,5.069,23.623S6.368,12.32,9.837,8.9c6.234-5.652,19.07-4.812,19.07-4.812C39.751,4.128,44.944,7.4,46.153,8.493c4,3.425,6.032,11.617,4.544,23.625ZM35.14,23.075a.723.723,0,0,1-1.444.067c-.123-2.462-1.276-3.66-3.648-3.794a.723.723,0,0,1,.078-1.444C33.249,18.072,34.984,19.863,35.14,23.075Zm2.272,1.265c.112-4.745-2.854-8.461-8.483-8.875a.724.724,0,0,1,.1-1.444c6.491.47,9.949,4.935,9.826,10.352A.722.722,0,0,1,37.412,24.339Zm5.26,1.5a.722.722,0,0,1-1.444.011c-.067-9.121-6.144-14.09-13.519-14.146a.722.722,0,0,1,0-1.444C35.957,10.317,42.594,16.013,42.672,25.839ZM41.407,36.818v.022c-1.209,2.126-3.469,4.477-5.8,3.727l-.022-.034A43.018,43.018,0,0,1,24.15,34.21a29.257,29.257,0,0,1-4.745-4.745,36.316,36.316,0,0,1-3.447-5.215,33.44,33.44,0,0,1-2.91-6.234c-.75-2.328,1.589-4.588,3.727-5.8H16.8a2.037,2.037,0,0,1,2.675.436s1.388,1.656,1.981,2.473c.56.761,1.309,1.981,1.7,2.664a2.337,2.337,0,0,1-.414,2.977L21.4,21.844a1.969,1.969,0,0,0-.593,1.567s1.992,7.532,9.434,9.434a1.969,1.969,0,0,0,1.567-.593l1.074-1.343a2.337,2.337,0,0,1,2.977-.414,29,29,0,0,1,5.126,3.682A2,2,0,0,1,41.407,36.818Z" transform="translate(-0.927 -0.003)" fill="#fff"/></svg>