<svg xmlns="http://www.w3.org/2000/svg" width="27.673" height="59.567" viewBox="0 0 27.673 59.567"><g transform="translate(0 0)"><path d="M157.081,243.9v28.8a.75.75,0,0,0,.75.75h10.694a.75.75,0,0,0,.75-.75V243.43h7.754a.749.749,0,0,0,.746-.686l.746-8.819a.751.751,0,0,0-.748-.814h-8.5v-6.256a2.655,2.655,0,0,1,2.654-2.656h5.977a.75.75,0,0,0,.75-.75v-8.817a.75.75,0,0,0-.75-.75h-10.1a10.728,10.728,0,0,0-10.729,10.729v8.5h-5.347a.75.75,0,0,0-.75.75v8.819a.749.749,0,0,0,.75.75h5.347Z" transform="translate(-150.984 -213.881)" fill="#fff" fill-rule="evenodd"/></g></svg>