<svg xmlns="http://www.w3.org/2000/svg" width="54.865" height="54.865" viewBox="0 0 54.865 54.865"><g transform="translate(-1 -1)"><path d="M15.716,3H41.149A12.716,12.716,0,0,1,53.865,15.716V41.149A12.716,12.716,0,0,1,41.149,53.865H15.716A12.716,12.716,0,0,1,3,41.149V15.716A12.716,12.716,0,0,1,15.716,3Z" transform="translate(0 0)" fill="none" stroke="#fff" stroke-linecap="round" stroke-linejoin="round" stroke-width="4"/><path d="M32.3,20.616a10.173,10.173,0,1,1-8.571-8.571A10.173,10.173,0,0,1,32.3,20.616Z" transform="translate(6.305 6.214)" fill="none" stroke="#fff" stroke-linecap="round" stroke-linejoin="round" stroke-width="4"/><path d="M26.25,9.75h0" transform="translate(16.171 4.695)" fill="none" stroke="#fff" stroke-linecap="round" stroke-linejoin="round" stroke-width="4"/></g></svg>