<svg xmlns="http://www.w3.org/2000/svg" width="53.874" height="50.882" viewBox="0 0 53.874 50.882"><path d="M49.185,21.728a6.047,6.047,0,0,0-4.3,1.805,29.184,29.184,0,0,0-15.568-4.8L32.459,4.559,42.474,6.808a4.458,4.458,0,0,0,4.451,4.451,4.508,4.508,0,1,0,0-9.016,4.571,4.571,0,0,0-4.008,2.5L31.857,2.288a1.058,1.058,0,0,0-1.249.806L27.156,18.719a29.548,29.548,0,0,0-15.477,4.86,5.988,5.988,0,1,0-6.961,9.515,12.71,12.71,0,0,0-.3,2.8c0,9.515,10.719,17.225,23.88,17.225,13.217,0,23.936-7.71,23.936-17.225a10.833,10.833,0,0,0-.352-2.85A5.978,5.978,0,0,0,49.185,21.728ZM13.883,33.7a4.48,4.48,0,1,1,4.508,4.451A4.49,4.49,0,0,1,13.883,33.7ZM38.216,44.313c-4.133,4.133-15.795,4.133-19.928,0a1.058,1.058,0,0,1,0-1.556,1.091,1.091,0,0,1,1.5,0c3.157,3.236,13.626,3.293,16.919,0a1.091,1.091,0,0,1,1.5,0A1.049,1.049,0,0,1,38.216,44.313Zm-.091-6.154a4.48,4.48,0,1,1,4.508-4.451A4.458,4.458,0,0,1,38.125,38.159Z" transform="translate(-1.319 -2.243)" fill="#fff"/></svg>