<svg xmlns="http://www.w3.org/2000/svg" width="71.174" height="72.234" viewBox="0 0 71.174 72.234"><path d="M168.994,775.314a7.644,7.644,0,0,0,15.275-.469c0-.159-.006-.315-.017-.471a7.633,7.633,0,0,0-12.914-5.042h0l-1.623-.937-3.441-1.986a9.746,9.746,0,0,1-2.134,3.684l3.434,1.986,1.626.94.007,0a7.615,7.615,0,0,0-.228,1.822Q168.977,775.079,168.994,775.314Z" transform="translate(-135.697 -726.803)" fill="#55a630"/><path d="M40.485,637.382c.178,0,.352,0,.526-.007l.083,0c.476,0,.937-.025,1.409-.054a30.774,30.774,0,0,0,4.719-.664l.944-.211V626.4a10.2,10.2,0,0,1,0-19.225V591.506a1.961,1.961,0,0,1,1.75-1.949,1.926,1.926,0,0,1,1.194.25l.232.134.773.446a35.024,35.024,0,0,1,2.029-5.035q.365-.73.762-1.452c.109-.2.218-.388.33-.585q.7-1.22,1.485-2.356c.189-.28.385-.555.584-.828-.457.116-.915.24-1.365.374a35.58,35.58,0,0,0-17.417,56.81C39.164,637.36,39.825,637.382,40.485,637.382Z" transform="translate(-30.372 -580.133)" fill="#55a630"/><path d="M194.547,663.008a7.658,7.658,0,0,0-7.627,7.179q-.017.234-.017.468a7.645,7.645,0,0,0,15.275.471c.011-.156.017-.312.017-.471A7.655,7.655,0,0,0,194.547,663.008Z" transform="translate(-153.622 -645.387)" fill="#55a630"/><path d="M191.625,613.033a35.58,35.58,0,0,0-36.732-17.3c-.356.53-.7,1.085-1.024,1.652-.1.174-.2.348-.3.53-.232.428-.457.857-.671,1.281a30.519,30.519,0,0,0-1.768,4.392l-.29.926,8.694,5.024a10.2,10.2,0,0,1,16.651,9.612l13.565,7.834a1.944,1.944,0,0,1,.98,1.7,1.974,1.974,0,0,1-.163.788,1.923,1.923,0,0,1-.817.907l-.236.138-.769.447a35.4,35.4,0,0,1,3.343,4.28c.3.45.6.907.875,1.372.12.192.236.388.348.584.468.81.9,1.634,1.3,2.465.145.3.283.61.421.918.124-.439.243-.878.348-1.321A35.429,35.429,0,0,0,191.625,613.033Z" transform="translate(-125.225 -592.03)" fill="#55a630"/><path d="M109.023,714.652l-.323.185-.345.2-1.281.737h0a7.619,7.619,0,1,0,2.135,3.686h0l1.274-.733.345-.2.327-.189,3.115-1.8a9.691,9.691,0,0,1-2.131-3.685Z" transform="translate(-80.578 -684.633)" fill="#55a630"/><path d="M117.83,779.468l-.036-.058c-.225-.374-.472-.762-.762-1.194a30.939,30.939,0,0,0-2.944-3.768l-.646-.708-8.694,5.02a10.106,10.106,0,0,1,.171,1.855A10.2,10.2,0,0,1,88.1,788.373l-13.569,7.834a1.953,1.953,0,0,1-2.563-.541,1.93,1.93,0,0,1-.378-1.158v-1.161a34.956,34.956,0,0,1-5.376.759c-.545.036-1.089.058-1.641.065-.222.007-.443.011-.668.011q-1.4,0-2.781-.112c-.338-.022-.675-.054-1.009-.091.323.334.65.661.987.98a35.581,35.581,0,0,0,57.921-13.311c-.3-.606-.6-1.176-.918-1.717C118.008,779.766,117.921,779.613,117.83,779.468Z" transform="translate(-53.79 -732.576)" fill="#55a630"/></svg>